<?xml version="1.0" encoding="UTF-8" standalone="no"?>
<!-- Created with Inkscape (http://www.inkscape.org/) -->

<svg
   width="131.40266mm"
   height="161.32008mm"
   viewBox="0 0 131.40266 161.32008"
   version="1.1"
   id="svg22145"
   inkscape:version="1.2 (dc2aeda, 2022-05-15)"
   sodipodi:docname="uby-mousque.svg"
   xmlns:inkscape="http://www.inkscape.org/namespaces/inkscape"
   xmlns:sodipodi="http://sodipodi.sourceforge.net/DTD/sodipodi-0.dtd"
   xmlns="http://www.w3.org/2000/svg"
   xmlns:svg="http://www.w3.org/2000/svg">
  <sodipodi:namedview
     id="namedview22147"
     pagecolor="#ffffff"
     bordercolor="#000000"
     borderopacity="0.25"
     inkscape:showpageshadow="2"
     inkscape:pageopacity="0.0"
     inkscape:pagecheckerboard="0"
     inkscape:deskcolor="#d1d1d1"
     inkscape:document-units="mm"
     showgrid="false"
     inkscape:zoom="0.2102413"
     inkscape:cx="266.3606"
     inkscape:cy="406.67556"
     inkscape:window-width="1440"
     inkscape:window-height="872"
     inkscape:window-x="0"
     inkscape:window-y="28"
     inkscape:window-maximized="0"
     inkscape:current-layer="layer1" />
  <defs
     id="defs22142">
    <clipPath
       clipPathUnits="userSpaceOnUse"
       id="clipPath5936">
      <path
         d="M 0,0 H 750 V 500 H 0 Z"
         id="path5934" />
    </clipPath>
    <clipPath
       clipPathUnits="userSpaceOnUse"
       id="clipPath5944">
      <path
         d="M 188.76,259.903 H 561.24 V 0 H 188.76 Z"
         id="path5942" />
    </clipPath>
    <clipPath
       clipPathUnits="userSpaceOnUse"
       id="clipPath5948">
      <path
         d="m 456.51,223.177 c 0,0.839 0.681,1.52 1.521,1.52 0.84,0 1.521,-0.681 1.521,-1.52 v -11.621 h -3.042 z m 4.259,0 c 0,0.839 0.681,1.52 1.521,1.52 0.84,0 1.521,-0.681 1.521,-1.52 v -11.621 h -3.042 z m -174.58,0 c 0,0.839 0.681,1.52 1.521,1.52 0.84,0 1.521,-0.681 1.521,-1.52 v -11.621 h -3.042 z m 4.259,0 c 0,0.839 0.681,1.52 1.521,1.52 0.84,0 1.521,-0.681 1.521,-1.52 v -11.621 h -3.042 z m 14.006,20.178 c 0,0.84 0.681,1.521 1.521,1.521 0.84,0 1.521,-0.681 1.521,-1.521 v -11.62 h -3.042 z m 4.259,0 c 0,0.84 0.681,1.521 1.521,1.521 0.84,0 1.521,-0.681 1.521,-1.521 v -11.62 h -3.042 z m 129.532,0 c 0,0.84 0.681,1.521 1.521,1.521 0.84,0 1.521,-0.681 1.521,-1.521 v -11.62 h -3.042 z m 4.259,0 c 0,0.84 0.681,1.521 1.521,1.521 0.84,0 1.521,-0.681 1.521,-1.521 v -11.62 h -3.042 z m 112.798,-50.488 c -25.816,0 -48.158,-14.817 -59.027,-36.403 -5.022,-2.372 -9.446,-5.799 -12.992,-9.994 -3.256,1.574 -6.727,2.77 -10.352,3.55 -0.961,5.396 -2.857,10.468 -5.511,15.046 v 41.522 l 0.568,0.649 v 4.38 h -0.568 v 14.196 l 0.568,0.487 v 2.433 h -1.298 c 0,5.516 -5.191,8.923 -5.191,8.923 v 2.069 h -1.339 -1.338 v -2.069 c 0,0 -5.192,-3.407 -5.192,-8.923 h -1.298 V 226.3 l 0.568,-0.487 v -14.196 h -0.568 v -4.38 l 0.568,-0.649 v -26.102 c -1.21,0.804 -2.458,1.556 -3.745,2.246 v 44.034 l 0.568,0.649 v 4.381 h -0.568 v 14.195 l 0.568,0.487 v 2.434 h -1.298 c 0,5.516 -5.191,8.923 -5.191,8.923 v 2.068 h -1.339 -1.338 v -2.068 c 0,0 -5.192,-3.407 -5.192,-8.923 h -1.298 v -2.434 l 0.568,-0.487 v -14.195 h -0.568 v -4.381 l 0.568,-0.649 v -39.152 c -2.39,0.38 -4.836,0.589 -7.333,0.589 -11.548,0 -22.099,-4.232 -30.215,-11.216 v 8.45 l 1.027,1.028 v 6.035 h -1.913 c 0,4.494 -3.994,6.677 -3.994,6.677 v 7.063 h -1.541 c 9.374,11.942 -10.786,22.729 -10.786,22.729 v 2.183 h -1.927 v 1.926 h -1.412 L 375,253.752 373.459,233.078 h -1.413 v -1.926 h -1.926 v -2.183 c 0,0 -20.16,-10.787 -10.786,-22.729 h -1.541 v -7.063 c 0,0 -3.994,-2.183 -3.994,-6.677 h -1.913 v -6.035 l 1.027,-1.028 v -8.45 c -8.116,6.984 -18.668,11.216 -30.215,11.216 -2.497,0 -4.943,-0.209 -7.333,-0.589 v 39.152 l 0.568,0.649 v 4.381 h -0.568 v 14.195 l 0.568,0.487 v 2.434 h -1.298 c 0,5.516 -5.192,8.923 -5.192,8.923 v 2.068 h -1.338 -1.339 v -2.068 c 0,0 -5.191,-3.407 -5.191,-8.923 h -1.298 v -2.434 l 0.568,-0.487 v -14.195 h -0.568 v -4.381 l 0.568,-0.649 v -44.034 c -1.287,-0.69 -2.535,-1.442 -3.745,-2.246 v 26.102 l 0.568,0.649 v 4.38 H 297.1 v 14.196 l 0.568,0.487 v 2.433 h -1.298 c 0,5.516 -5.192,8.923 -5.192,8.923 v 2.069 h -1.338 -1.339 v -2.069 c 0,0 -5.191,-3.407 -5.191,-8.923 h -1.298 V 226.3 l 0.568,-0.487 v -14.196 h -0.568 v -4.38 l 0.568,-0.649 v -41.522 c -2.654,-4.578 -4.55,-9.65 -5.511,-15.046 -3.625,-0.78 -7.096,-1.976 -10.352,-3.55 -3.546,4.195 -7.97,7.622 -12.992,9.994 -10.869,21.586 -33.211,36.403 -59.027,36.403 -2.003,0 -3.98,-0.105 -5.938,-0.279 V 0.001 h 372.48 v 192.587 c -1.958,0.174 -3.935,0.279 -5.938,0.279"
         id="path5946" />
    </clipPath>
    <mask
       maskUnits="userSpaceOnUse"
       x="0"
       y="0"
       width="1"
       height="1"
       id="mask5960">
      <g
         id="g5970">
        <g
           id="g5968">
          <g
             id="g5966">
            <g
               id="g5964">
              <path
                 d="M -32768,32767 H 32767 V -32768 H -32768 Z"
                 style="fill:url(#linearGradient5958);stroke:none"
                 id="path5962" />
            </g>
          </g>
        </g>
      </g>
    </mask>
    <linearGradient
       x1="0"
       y1="0"
       x2="1"
       y2="0"
       gradientUnits="userSpaceOnUse"
       gradientTransform="matrix(0,259.90237,259.90237,0,374.99997,7.614e-4)"
       spreadMethod="pad"
       id="linearGradient5958">
      <stop
         style="stop-opacity:0.8;stop-color:#ffffff"
         offset="0"
         id="stop5954" />
      <stop
         style="stop-opacity:0;stop-color:#ffffff"
         offset="1"
         id="stop5956" />
    </linearGradient>
    <linearGradient
       x1="0"
       y1="0"
       x2="1"
       y2="0"
       gradientUnits="userSpaceOnUse"
       gradientTransform="matrix(0,259.90237,259.90237,0,374.99997,7.614e-4)"
       spreadMethod="pad"
       id="linearGradient5976">
      <stop
         style="stop-opacity:1;stop-color:#ffffff"
         offset="0"
         id="stop5972" />
      <stop
         style="stop-opacity:1;stop-color:#eaa35c"
         offset="1"
         id="stop5974" />
    </linearGradient>
    <clipPath
       clipPathUnits="userSpaceOnUse"
       id="clipPath5980">
      <path
         d="m 456.51,223.177 c 0,0.839 0.681,1.52 1.521,1.52 0.84,0 1.521,-0.681 1.521,-1.52 v -11.621 h -3.042 z m 4.259,0 c 0,0.839 0.681,1.52 1.521,1.52 0.84,0 1.521,-0.681 1.521,-1.52 v -11.621 h -3.042 z m -174.58,0 c 0,0.839 0.681,1.52 1.521,1.52 0.84,0 1.521,-0.681 1.521,-1.52 v -11.621 h -3.042 z m 4.259,0 c 0,0.839 0.681,1.52 1.521,1.52 0.84,0 1.521,-0.681 1.521,-1.52 v -11.621 h -3.042 z m 14.006,20.178 c 0,0.84 0.681,1.521 1.521,1.521 0.84,0 1.521,-0.681 1.521,-1.521 v -11.62 h -3.042 z m 4.259,0 c 0,0.84 0.681,1.521 1.521,1.521 0.84,0 1.521,-0.681 1.521,-1.521 v -11.62 h -3.042 z m 129.532,0 c 0,0.84 0.681,1.521 1.521,1.521 0.84,0 1.521,-0.681 1.521,-1.521 v -11.62 h -3.042 z m 4.259,0 c 0,0.84 0.681,1.521 1.521,1.521 0.84,0 1.521,-0.681 1.521,-1.521 v -11.62 h -3.042 z m 112.798,-50.488 c -25.816,0 -48.158,-14.817 -59.027,-36.403 -5.022,-2.372 -9.446,-5.799 -12.992,-9.994 -3.256,1.574 -6.727,2.77 -10.352,3.55 -0.961,5.396 -2.857,10.468 -5.511,15.046 v 41.522 l 0.568,0.649 v 4.38 h -0.568 v 14.196 l 0.568,0.487 v 2.433 h -1.298 c 0,5.516 -5.191,8.923 -5.191,8.923 v 2.069 h -1.339 -1.338 v -2.069 c 0,0 -5.192,-3.407 -5.192,-8.923 h -1.298 V 226.3 l 0.568,-0.487 v -14.196 h -0.568 v -4.38 l 0.568,-0.649 v -26.102 c -1.21,0.804 -2.458,1.556 -3.745,2.246 v 44.034 l 0.568,0.649 v 4.381 h -0.568 v 14.195 l 0.568,0.487 v 2.434 h -1.298 c 0,5.516 -5.191,8.923 -5.191,8.923 v 2.068 h -1.339 -1.338 v -2.068 c 0,0 -5.192,-3.407 -5.192,-8.923 h -1.298 v -2.434 l 0.568,-0.487 v -14.195 h -0.568 v -4.381 l 0.568,-0.649 v -39.152 c -2.39,0.38 -4.836,0.589 -7.333,0.589 -11.548,0 -22.099,-4.232 -30.215,-11.216 v 8.45 l 1.027,1.028 v 6.035 h -1.913 c 0,4.494 -3.994,6.677 -3.994,6.677 v 7.063 h -1.541 c 9.374,11.942 -10.786,22.729 -10.786,22.729 v 2.183 h -1.927 v 1.926 h -1.412 L 375,253.752 373.459,233.078 h -1.413 v -1.926 h -1.926 v -2.183 c 0,0 -20.16,-10.787 -10.786,-22.729 h -1.541 v -7.063 c 0,0 -3.994,-2.183 -3.994,-6.677 h -1.913 v -6.035 l 1.027,-1.028 v -8.45 c -8.116,6.984 -18.668,11.216 -30.215,11.216 -2.497,0 -4.943,-0.209 -7.333,-0.589 v 39.152 l 0.568,0.649 v 4.381 h -0.568 v 14.195 l 0.568,0.487 v 2.434 h -1.298 c 0,5.516 -5.192,8.923 -5.192,8.923 v 2.068 h -1.338 -1.339 v -2.068 c 0,0 -5.191,-3.407 -5.191,-8.923 h -1.298 v -2.434 l 0.568,-0.487 v -14.195 h -0.568 v -4.381 l 0.568,-0.649 v -44.034 c -1.287,-0.69 -2.535,-1.442 -3.745,-2.246 v 26.102 l 0.568,0.649 v 4.38 H 297.1 v 14.196 l 0.568,0.487 v 2.433 h -1.298 c 0,5.516 -5.192,8.923 -5.192,8.923 v 2.069 h -1.338 -1.339 v -2.069 c 0,0 -5.191,-3.407 -5.191,-8.923 h -1.298 V 226.3 l 0.568,-0.487 v -14.196 h -0.568 v -4.38 l 0.568,-0.649 v -41.522 c -2.654,-4.578 -4.55,-9.65 -5.511,-15.046 -3.625,-0.78 -7.096,-1.976 -10.352,-3.55 -3.546,4.195 -7.97,7.622 -12.992,9.994 -10.869,21.586 -33.211,36.403 -59.027,36.403 -2.003,0 -3.98,-0.105 -5.938,-0.279 V 0 h 372.48 v 192.588 c -1.958,0.174 -3.935,0.279 -5.938,0.279"
         id="path5978" />
    </clipPath>
    <mask
       maskUnits="userSpaceOnUse"
       x="0"
       y="0"
       width="1"
       height="1"
       id="mask5994">
      <g
         id="g6004">
        <g
           id="g6002">
          <g
             id="g6000">
            <g
               id="g5998">
              <path
                 d="M -32768,32767 H 32767 V -32768 H -32768 Z"
                 style="fill:url(#linearGradient5992);stroke:none"
                 id="path5996" />
            </g>
          </g>
        </g>
      </g>
    </mask>
    <linearGradient
       x1="0"
       y1="0"
       x2="1"
       y2="0"
       gradientUnits="userSpaceOnUse"
       gradientTransform="matrix(0,281.76016,281.76016,0,374.99997,0)"
       spreadMethod="pad"
       id="linearGradient5992">
      <stop
         style="stop-opacity:0.8;stop-color:#ffffff"
         offset="0"
         id="stop5986" />
      <stop
         style="stop-opacity:0.8;stop-color:#ffffff"
         offset="0.385027"
         id="stop5988" />
      <stop
         style="stop-opacity:0;stop-color:#ffffff"
         offset="1"
         id="stop5990" />
    </linearGradient>
    <linearGradient
       x1="0"
       y1="0"
       x2="1"
       y2="0"
       gradientUnits="userSpaceOnUse"
       gradientTransform="matrix(0,281.76016,281.76016,0,374.99997,0)"
       spreadMethod="pad"
       id="linearGradient6012">
      <stop
         style="stop-opacity:1;stop-color:#ffffff"
         offset="0"
         id="stop6006" />
      <stop
         style="stop-opacity:1;stop-color:#ffffff"
         offset="0.385027"
         id="stop6008" />
      <stop
         style="stop-opacity:1;stop-color:#eaa35c"
         offset="1"
         id="stop6010" />
    </linearGradient>
  </defs>
  <g
     inkscape:label="Layer 1"
     inkscape:groupmode="layer"
     id="layer1"
     transform="translate(-33.718162,-41.411992)">
    <g
       id="g5930"
       transform="matrix(0.35277777,0,0,-0.35277777,-32.87217,202.73208)">
      <g
         id="g5932"
         clip-path="url(#clipPath5936)">
        <g
           id="g5938">
          <g
             id="g5940" />
          <g
             id="g6044">
            <g
               clip-path="url(#clipPath5944)"
               id="g6042">
              <g
                 id="g6026">
                <g
                   clip-path="url(#clipPath5948)"
                   id="g6024">
                  <g
                     id="g6022">
                    <g
                       id="g6014" />
                    <g
                       mask="url(#mask5960)"
                       id="g6020">
                      <g
                         id="g6018">
                        <path
                           d="m 456.51,223.177 c 0,0.839 0.681,1.52 1.521,1.52 0.84,0 1.521,-0.681 1.521,-1.52 v -11.621 h -3.042 z m 4.259,0 c 0,0.839 0.681,1.52 1.521,1.52 0.84,0 1.521,-0.681 1.521,-1.52 v -11.621 h -3.042 z m -174.58,0 c 0,0.839 0.681,1.52 1.521,1.52 0.84,0 1.521,-0.681 1.521,-1.52 v -11.621 h -3.042 z m 4.259,0 c 0,0.839 0.681,1.52 1.521,1.52 0.84,0 1.521,-0.681 1.521,-1.52 v -11.621 h -3.042 z m 14.006,20.178 c 0,0.84 0.681,1.521 1.521,1.521 0.84,0 1.521,-0.681 1.521,-1.521 v -11.62 h -3.042 z m 4.259,0 c 0,0.84 0.681,1.521 1.521,1.521 0.84,0 1.521,-0.681 1.521,-1.521 v -11.62 h -3.042 z m 129.532,0 c 0,0.84 0.681,1.521 1.521,1.521 0.84,0 1.521,-0.681 1.521,-1.521 v -11.62 h -3.042 z m 4.259,0 c 0,0.84 0.681,1.521 1.521,1.521 0.84,0 1.521,-0.681 1.521,-1.521 v -11.62 h -3.042 z m 112.798,-50.488 c -25.816,0 -48.158,-14.817 -59.027,-36.403 -5.022,-2.372 -9.446,-5.799 -12.992,-9.994 -3.256,1.574 -6.727,2.77 -10.352,3.55 -0.961,5.396 -2.857,10.468 -5.511,15.046 v 41.522 l 0.568,0.649 v 4.38 h -0.568 v 14.196 l 0.568,0.487 v 2.433 h -1.298 c 0,5.516 -5.191,8.923 -5.191,8.923 v 2.069 h -1.339 -1.338 v -2.069 c 0,0 -5.192,-3.407 -5.192,-8.923 h -1.298 V 226.3 l 0.568,-0.487 v -14.196 h -0.568 v -4.38 l 0.568,-0.649 v -26.102 c -1.21,0.804 -2.458,1.556 -3.745,2.246 v 44.034 l 0.568,0.649 v 4.381 h -0.568 v 14.195 l 0.568,0.487 v 2.434 h -1.298 c 0,5.516 -5.191,8.923 -5.191,8.923 v 2.068 h -1.339 -1.338 v -2.068 c 0,0 -5.192,-3.407 -5.192,-8.923 h -1.298 v -2.434 l 0.568,-0.487 v -14.195 h -0.568 v -4.381 l 0.568,-0.649 v -39.152 c -2.39,0.38 -4.836,0.589 -7.333,0.589 -11.548,0 -22.099,-4.232 -30.215,-11.216 v 8.45 l 1.027,1.028 v 6.035 h -1.913 c 0,4.494 -3.994,6.677 -3.994,6.677 v 7.063 h -1.541 c 9.374,11.942 -10.786,22.729 -10.786,22.729 v 2.183 h -1.927 v 1.926 h -1.412 L 375,253.752 373.459,233.078 h -1.413 v -1.926 h -1.926 v -2.183 c 0,0 -20.16,-10.787 -10.786,-22.729 h -1.541 v -7.063 c 0,0 -3.994,-2.183 -3.994,-6.677 h -1.913 v -6.035 l 1.027,-1.028 v -8.45 c -8.116,6.984 -18.668,11.216 -30.215,11.216 -2.497,0 -4.943,-0.209 -7.333,-0.589 v 39.152 l 0.568,0.649 v 4.381 h -0.568 v 14.195 l 0.568,0.487 v 2.434 h -1.298 c 0,5.516 -5.192,8.923 -5.192,8.923 v 2.068 h -1.338 -1.339 v -2.068 c 0,0 -5.191,-3.407 -5.191,-8.923 h -1.298 v -2.434 l 0.568,-0.487 v -14.195 h -0.568 v -4.381 l 0.568,-0.649 v -44.034 c -1.287,-0.69 -2.535,-1.442 -3.745,-2.246 v 26.102 l 0.568,0.649 v 4.38 H 297.1 v 14.196 l 0.568,0.487 v 2.433 h -1.298 c 0,5.516 -5.192,8.923 -5.192,8.923 v 2.069 h -1.338 -1.339 v -2.069 c 0,0 -5.191,-3.407 -5.191,-8.923 h -1.298 V 226.3 l 0.568,-0.487 v -14.196 h -0.568 v -4.38 l 0.568,-0.649 v -41.522 c -2.654,-4.578 -4.55,-9.65 -5.511,-15.046 -3.625,-0.78 -7.096,-1.976 -10.352,-3.55 -3.546,4.195 -7.97,7.622 -12.992,9.994 -10.869,21.586 -33.211,36.403 -59.027,36.403 -2.003,0 -3.98,-0.105 -5.938,-0.279 V 0.001 h 372.48 v 192.587 c -1.958,0.174 -3.935,0.279 -5.938,0.279"
                           style="fill:url(#linearGradient5976);stroke:none"
                           id="path6016" />
                      </g>
                    </g>
                  </g>
                </g>
              </g>
              <g
                 id="g6040">
                <g
                   clip-path="url(#clipPath5980)"
                   id="g6038">
                  <g
                     id="g6036">
                    <g
                       id="g6028" />
                    <g
                       mask="url(#mask5994)"
                       id="g6034">
                      <g
                         id="g6032">
                        <path
                           d="m 456.51,223.177 c 0,0.839 0.681,1.52 1.521,1.52 0.84,0 1.521,-0.681 1.521,-1.52 v -11.621 h -3.042 z m 4.259,0 c 0,0.839 0.681,1.52 1.521,1.52 0.84,0 1.521,-0.681 1.521,-1.52 v -11.621 h -3.042 z m -174.58,0 c 0,0.839 0.681,1.52 1.521,1.52 0.84,0 1.521,-0.681 1.521,-1.52 v -11.621 h -3.042 z m 4.259,0 c 0,0.839 0.681,1.52 1.521,1.52 0.84,0 1.521,-0.681 1.521,-1.52 v -11.621 h -3.042 z m 14.006,20.178 c 0,0.84 0.681,1.521 1.521,1.521 0.84,0 1.521,-0.681 1.521,-1.521 v -11.62 h -3.042 z m 4.259,0 c 0,0.84 0.681,1.521 1.521,1.521 0.84,0 1.521,-0.681 1.521,-1.521 v -11.62 h -3.042 z m 129.532,0 c 0,0.84 0.681,1.521 1.521,1.521 0.84,0 1.521,-0.681 1.521,-1.521 v -11.62 h -3.042 z m 4.259,0 c 0,0.84 0.681,1.521 1.521,1.521 0.84,0 1.521,-0.681 1.521,-1.521 v -11.62 h -3.042 z m 112.798,-50.488 c -25.816,0 -48.158,-14.817 -59.027,-36.403 -5.022,-2.372 -9.446,-5.799 -12.992,-9.994 -3.256,1.574 -6.727,2.77 -10.352,3.55 -0.961,5.396 -2.857,10.468 -5.511,15.046 v 41.522 l 0.568,0.649 v 4.38 h -0.568 v 14.196 l 0.568,0.487 v 2.433 h -1.298 c 0,5.516 -5.191,8.923 -5.191,8.923 v 2.069 h -1.339 -1.338 v -2.069 c 0,0 -5.192,-3.407 -5.192,-8.923 h -1.298 V 226.3 l 0.568,-0.487 v -14.196 h -0.568 v -4.38 l 0.568,-0.649 v -26.102 c -1.21,0.804 -2.458,1.556 -3.745,2.246 v 44.034 l 0.568,0.649 v 4.381 h -0.568 v 14.195 l 0.568,0.487 v 2.434 h -1.298 c 0,5.516 -5.191,8.923 -5.191,8.923 v 2.068 h -1.339 -1.338 v -2.068 c 0,0 -5.192,-3.407 -5.192,-8.923 h -1.298 v -2.434 l 0.568,-0.487 v -14.195 h -0.568 v -4.381 l 0.568,-0.649 v -39.152 c -2.39,0.38 -4.836,0.589 -7.333,0.589 -11.548,0 -22.099,-4.232 -30.215,-11.216 v 8.45 l 1.027,1.028 v 6.035 h -1.913 c 0,4.494 -3.994,6.677 -3.994,6.677 v 7.063 h -1.541 c 9.374,11.942 -10.786,22.729 -10.786,22.729 v 2.183 h -1.927 v 1.926 h -1.412 L 375,253.752 373.459,233.078 h -1.413 v -1.926 h -1.926 v -2.183 c 0,0 -20.16,-10.787 -10.786,-22.729 h -1.541 v -7.063 c 0,0 -3.994,-2.183 -3.994,-6.677 h -1.913 v -6.035 l 1.027,-1.028 v -8.45 c -8.116,6.984 -18.668,11.216 -30.215,11.216 -2.497,0 -4.943,-0.209 -7.333,-0.589 v 39.152 l 0.568,0.649 v 4.381 h -0.568 v 14.195 l 0.568,0.487 v 2.434 h -1.298 c 0,5.516 -5.192,8.923 -5.192,8.923 v 2.068 h -1.338 -1.339 v -2.068 c 0,0 -5.191,-3.407 -5.191,-8.923 h -1.298 v -2.434 l 0.568,-0.487 v -14.195 h -0.568 v -4.381 l 0.568,-0.649 v -44.034 c -1.287,-0.69 -2.535,-1.442 -3.745,-2.246 v 26.102 l 0.568,0.649 v 4.38 H 297.1 v 14.196 l 0.568,0.487 v 2.433 h -1.298 c 0,5.516 -5.192,8.923 -5.192,8.923 v 2.069 h -1.338 -1.339 v -2.069 c 0,0 -5.191,-3.407 -5.191,-8.923 h -1.298 V 226.3 l 0.568,-0.487 v -14.196 h -0.568 v -4.38 l 0.568,-0.649 v -41.522 c -2.654,-4.578 -4.55,-9.65 -5.511,-15.046 -3.625,-0.78 -7.096,-1.976 -10.352,-3.55 -3.546,4.195 -7.97,7.622 -12.992,9.994 -10.869,21.586 -33.211,36.403 -59.027,36.403 -2.003,0 -3.98,-0.105 -5.938,-0.279 V 0 h 372.48 v 192.588 c -1.958,0.174 -3.935,0.279 -5.938,0.279"
                           style="fill:url(#linearGradient6012);stroke:none"
                           id="path6030" />
                      </g>
                    </g>
                  </g>
                </g>
              </g>
            </g>
          </g>
        </g>
        <g
           id="g6046"
           transform="translate(551.9971,9.2433)">
          <path
             d="m 0,0 h -353.994 v 250.523 c 0,40.568 33.486,49.17 34.901,49.514 4.214,0.976 7.157,4.678 7.157,9.004 0,52.334 46.206,55.829 48.166,55.952 4.898,0.269 8.735,4.323 8.735,9.229 0,26.455 27.615,38.577 47.819,47.445 3.753,1.648 7.299,3.205 10.335,4.723 7.866,3.933 14.549,9.995 19.884,18.032 5.333,-8.036 12.017,-14.099 19.884,-18.032 3.033,-1.517 6.574,-3.072 10.371,-4.739 20.165,-8.851 47.783,-20.972 47.783,-47.429 0,-4.869 3.82,-8.922 8.697,-9.227 1.969,-0.123 48.204,-3.608 48.204,-55.954 0,-4.28 2.922,-7.978 7.107,-8.992 C -33.521,299.701 0,291.098 0,250.523 Z m -34.493,301.941 c -3.307,0.802 -5.617,3.721 -5.617,7.1 0,54.156 -47.987,57.77 -50.03,57.897 -3.853,0.242 -6.871,3.441 -6.871,7.284 0,27.729 -28.291,40.146 -48.996,49.234 -3.726,1.636 -7.246,3.181 -10.235,4.676 -7.954,3.977 -14.66,10.236 -19.931,18.602 l -0.824,1.308 -0.824,-1.308 c -5.272,-8.367 -11.978,-14.625 -19.931,-18.602 -2.993,-1.496 -6.517,-3.043 -10.287,-4.698 -20.656,-9.068 -48.944,-21.485 -48.944,-49.212 0,-3.873 -3.028,-7.072 -6.902,-7.285 -2.041,-0.128 -49.999,-3.753 -49.999,-57.896 0,-3.414 -2.323,-6.337 -5.659,-7.109 -1.486,-0.361 -36.398,-9.328 -36.398,-51.409 V -1.948 H 1.948 v 252.471 c 0,42.092 -34.953,51.057 -36.441,51.418"
             style="fill:#ea9937;fill-opacity:1;fill-rule:nonzero;stroke:none"
             id="path6048" />
        </g>
        <g
           id="g6050"
           transform="translate(543.7876,17.4519)">
          <path
             d="m 0,0 h -337.575 v 242.315 c 0,33.152 25.722,40.779 28.575,41.521 7.938,1.704 13.483,8.693 13.483,16.996 0,19.056 6.269,32.269 19.165,40.395 10.106,6.369 20.901,7.329 21.28,7.361 9.227,0.408 16.455,8.062 16.455,17.425 0,19.506 19.417,29.616 42.883,39.917 3.86,1.695 7.507,3.295 10.733,4.908 6.017,3.009 11.462,7.079 16.213,12.114 4.752,-5.035 10.197,-9.105 16.213,-12.114 3.213,-1.606 6.843,-3.2 10.743,-4.912 23.456,-10.296 42.873,-20.406 42.873,-39.913 0,-9.363 7.228,-17.018 16.381,-17.42 0.454,-0.037 11.245,-0.996 21.355,-7.366 12.896,-8.126 19.165,-21.339 19.165,-40.395 0,-8.287 5.525,-15.266 13.44,-16.987 C -25.515,283.033 0,275.335 0,242.315 Z m -27.677,287.626 -0.08,0.019 c -6.126,1.315 -10.405,6.738 -10.405,13.187 0,20.503 -6.864,34.794 -20.984,43.691 -10.722,6.756 -21.874,7.85 -23.186,7.957 -7.14,0.315 -12.732,6.26 -12.732,13.533 0,21.86 -20.471,32.625 -45.26,43.505 -3.796,1.667 -7.383,3.242 -10.509,4.805 -6.192,3.096 -11.74,7.405 -16.492,12.807 l -1.463,1.663 -1.462,-1.663 c -4.752,-5.402 -10.301,-9.711 -16.493,-12.807 -3.139,-1.57 -6.742,-3.151 -10.566,-4.83 -24.732,-10.856 -45.203,-21.621 -45.203,-43.48 0,-7.273 -5.592,-13.218 -12.807,-13.538 -1.236,-0.102 -12.391,-1.198 -23.111,-7.952 -14.119,-8.897 -20.983,-23.188 -20.983,-43.691 0,-6.449 -4.279,-11.872 -10.485,-13.206 -3.232,-0.838 -31.572,-9.229 -31.572,-45.311 V -3.896 H 3.896 v 246.211 c 0,36.083 -28.341,44.473 -31.573,45.311"
             style="fill:#ea9937;fill-opacity:1;fill-rule:nonzero;stroke:none"
             id="path6052" />
        </g>
      </g>
    </g>
  </g>
</svg>
